<mxfile host="65bd71144e">
    <diagram id="HAIO-W8ydv1is_kI1Q5l" name="Page-1">
        <mxGraphModel dx="1993" dy="1052" grid="1" gridSize="10" guides="1" tooltips="1" connect="1" arrows="1" fold="1" page="1" pageScale="1" pageWidth="850" pageHeight="1100" math="0" shadow="0">
            <root>
                <mxCell id="0"/>
                <mxCell id="1" parent="0"/>
                <mxCell id="2" value="JahresAnfang&amp;nbsp;/ Ersteinzahlung / Zinsaktivierung" style="rounded=0;whiteSpace=wrap;html=1;" vertex="1" parent="1">
                    <mxGeometry x="365" y="70" width="120" height="60" as="geometry"/>
                </mxCell>
                <mxCell id="3" value="JahresEnde / Vertragsende" style="rounded=0;whiteSpace=wrap;html=1;" vertex="1" parent="1">
                    <mxGeometry x="365" y="930" width="120" height="60" as="geometry"/>
                </mxCell>
                <mxCell id="4" value="EINzahlung &lt;br&gt;OHNE Zinsanrechnung" style="rounded=0;whiteSpace=wrap;html=1;" vertex="1" parent="1">
                    <mxGeometry x="40" y="240" width="140" height="60" as="geometry"/>
                </mxCell>
                <mxCell id="5" value="EINzahlung &lt;br&gt;MIT Zinsanrechnung" style="rounded=0;whiteSpace=wrap;html=1;" vertex="1" parent="1">
                    <mxGeometry x="228" y="240" width="120" height="60" as="geometry"/>
                </mxCell>
                <mxCell id="6" value="AUSzahlung &lt;br&gt;OHNE insanrechnung" style="rounded=0;whiteSpace=wrap;html=1;" vertex="1" parent="1">
                    <mxGeometry x="405" y="240" width="120" height="60" as="geometry"/>
                </mxCell>
                <mxCell id="7" value="AUSzahlung &lt;br&gt;MIT Zinsanrechnung &lt;br&gt;OHNE ZAuszahlung" style="rounded=0;whiteSpace=wrap;html=1;" vertex="1" parent="1">
                    <mxGeometry x="583" y="240" width="120" height="60" as="geometry"/>
                </mxCell>
                <mxCell id="8" value="AUSzahlung &lt;br&gt;MIT Zinsanrechnung &lt;br&gt;MIT ZAuszahlung" style="rounded=0;whiteSpace=wrap;html=1;" vertex="1" parent="1">
                    <mxGeometry x="760" y="240" width="120" height="60" as="geometry"/>
                </mxCell>
            </root>
        </mxGraphModel>
    </diagram>
</mxfile>